<svg 
 xmlns="http://www.w3.org/2000/svg"
 xmlns:xlink="http://www.w3.org/1999/xlink"
 width="170px" height="181px">
<path fill-rule="evenodd"  fill="red"
 d="M168.408,105.711 C143.845,108.640 153.310,131.851 140.240,135.6 C136.859,164.752 117.479,158.893 110.944,159.794 C104.184,171.287 94.43,166.329 85.29,180.75 C75.959,166.329 65.754,171.287 58.951,159.794 C52.375,158.893 32.873,164.752 29.472,135.6 C16.319,131.851 25.843,108.640 1.126,105.711 C0.460,94.443 0.219,82.49 13.598,74.162 C10.423,55.458 30.605,49.373 30.605,49.373 C30.605,49.373 32.873,26.839 57.817,22.332 C61.446,10.388 85.29,0.924 85.29,0.924 C85.29,0.924 108.465,10.388 112.71,22.332 C136.859,26.839 139.113,49.373 139.113,49.373 C139.113,49.373 159.169,55.458 156.14,74.162 C169.310,82.49 169.986,94.443 168.408,105.711 Z"/>
</svg>