<svg id="Component_3_1" data-name="Component 3 – 1" xmlns="http://www.w3.org/2000/svg" width="1366" height="812" viewBox="0 0 1366 812">
  <path id="Rectangle_26" data-name="Rectangle 26" d="M0,0H1366a0,0,0,0,1,0,0V315a200,200,0,0,1-200,200H200A200,200,0,0,1,0,315V0A0,0,0,0,1,0,0Z" fill="#fff"/>
  <path id="Rectangle_27" data-name="Rectangle 27" d="M0,0H974a0,0,0,0,1,0,0V471A100,100,0,0,1,874,571H100A100,100,0,0,1,0,471V0A0,0,0,0,1,0,0Z" transform="translate(196 28)" fill="#fff"/>
  <path id="Polygon_2" data-name="Polygon 2" d="M615.456,3.555a46,46,0,0,1,25.088,0L937.566,87.743C988.941,102.3,978.421,178,925.022,178H330.977c-53.4,0-63.919-75.695-12.544-90.257Z" transform="translate(1311 744) rotate(180)" fill="#fff"/>
  <circle id="Ellipse_4" data-name="Ellipse 4" cx="24" cy="24" r="24" transform="translate(659 742)" fill="#fff"/>
  <circle id="Ellipse_5" data-name="Ellipse 5" cx="11" cy="11" r="11" transform="translate(672 790)" fill="#fff"/>
</svg>
